<svg width="198" height="128" viewBox="0 0 198 128" fill="none" xmlns="http://www.w3.org/2000/svg">
<g clip-path="url(#clip0_412_594)">
<path d="M96.7485 81.7837C97.3099 81.7177 101.117 81.2691 102.427 83.9079C103.246 85.5506 102.801 87.8266 101.291 89.555C102.005 90.8894 102.539 92.3162 102.879 93.7969C103.408 96.0795 103.833 97.9201 102.879 99.4506C101.698 101.351 99.1682 101.542 98.5681 101.575L92.2058 101.337C91.4249 101.996 90.4759 102.413 89.4708 102.538C88.4657 102.663 87.4467 102.491 86.5339 102.043C85.4519 101.445 84.5959 100.494 84.1015 99.3424C83.6072 98.1906 83.5026 96.9031 83.8045 95.6837C83.4245 94.5225 83.3504 93.2796 83.5894 92.0798C83.8284 90.8801 84.3721 89.7658 85.166 88.8491C85.8366 88.1321 86.6508 87.5717 87.5529 87.2062C88.455 86.8407 89.4237 86.6788 90.3926 86.7315C90.6443 86.2301 92.7285 82.2587 96.7485 81.7837Z" fill="#16193A"/>
<path d="M76.4839 83.4067C76.4472 82.5568 76.3212 81.7132 76.1077 80.8896C75.7958 79.6457 75.2259 78.4805 74.4345 77.4689C73.6562 76.4879 72.2748 74.5516 70.0178 74.2935C69.365 74.2123 68.7024 74.2673 68.0721 74.4548C67.9424 73.8094 67.8062 73.164 67.6765 72.5186C67.6393 72.0102 67.5765 71.504 67.4884 71.0019C67.229 69.5626 66.9955 68.1685 66.1005 67.1294C65.2055 66.0903 64.6412 66.2968 63.7981 65.2513C63.1496 64.4703 63.4673 63.9217 63.0393 62.9859C62.6631 62.1598 61.7811 61.1723 59.5371 60.5979L59.7511 60.3978C59.1356 60.2382 58.5091 60.1239 57.8768 60.0557C51.469 59.3652 45.2494 63.7475 45.2364 63.7604C45.2234 63.7733 44.4387 64.8705 44.1792 65.1674C43.8787 65.582 43.6015 66.013 43.3491 66.4582C42.8403 66.8873 42.3891 67.3797 42.0066 67.9233C41.7511 67.7177 41.4801 67.5321 41.1959 67.3682C38.3422 65.8063 34.185 66.1355 31.915 68.5816L31.8242 68.6784C31.2317 69.4256 30.851 70.317 30.7217 71.26C30.6892 71.473 30.6503 71.686 30.6179 71.9055C30.6179 71.9506 30.6179 72.0216 30.6179 72.112C30.6103 72.2698 30.6212 72.4279 30.6503 72.5831C30.6982 72.9672 30.6741 73.3567 30.579 73.732C30.4947 74.0611 30.5141 74.8614 30.9097 76.8622L28.0691 77.5076L25.8899 79.489C25.4564 80.282 25.1106 81.1195 24.8587 81.9867C24.4483 83.2347 24.2789 84.5486 24.3593 85.8592C24.4894 87.4613 25.0494 88.9993 25.9807 90.3125C26.0884 90.3862 26.1864 90.4729 26.2725 90.5707C26.351 90.6662 26.4184 90.7701 26.4736 90.8805C26.9456 91.5977 27.5927 92.1839 28.3544 92.5844C28.4452 92.636 28.5944 92.7135 28.7825 92.7974L29.8072 92.9071C32.78 93.1842 35.776 93.0888 38.7249 92.6231C41.6369 93.1394 44.737 93.5848 48.0122 93.9139C48.3971 94.4938 48.885 94.999 49.452 95.4048C53.032 97.9413 58.6096 95.3532 60.3283 94.5593C61.3336 94.6626 62.1378 94.7529 62.6437 94.8175C65.2379 95.1273 66.107 95.3209 67.6051 95.2564C68.1696 95.256 68.7325 95.1976 69.2849 95.0821C71.0357 94.5866 72.5783 93.5405 73.6821 92.1003C76.672 88.5635 76.5228 84.1231 76.4839 83.426" fill="#16193A"/>
<path d="M194.912 62.3433C195.714 78.2526 196.52 94.1641 197.331 110.078L192.337 110.401H183.798C184.018 108.065 184.225 105.715 184.445 103.379C183.479 100.212 182.513 97.0486 181.547 93.8901C180.159 90.955 178.176 88.3409 175.724 86.2137C173.703 84.4989 171.421 83.118 168.964 82.1231C166.377 80.984 162.883 79.4306 158.174 79.5342C155.466 79.6012 152.793 80.1559 150.282 81.1717C147.866 82.0816 145.596 83.3374 143.541 84.8998C141.51 86.8416 139.465 88.8221 137.428 90.7898L133.883 96.835V107.793C132.51 107.689 131.156 107.413 129.852 106.971C127.936 106.283 126.143 105.291 124.541 104.032C123.457 103.236 122.435 102.36 121.481 101.411C120.531 101.476 119.541 101.534 118.583 101.573C114.935 101.735 111.467 101.722 108.123 101.573L107.793 92.259L116.203 93.0745C114.891 91.4489 113.956 89.5522 113.466 87.5212C113.095 85.9688 112.986 84.3653 113.143 82.7769C113.195 81.094 113.246 79.3982 113.305 77.7089C114.122 76.4477 115.096 75.295 116.203 74.2785C117.003 73.5526 117.87 72.9026 118.79 72.3368C118.168 69.6516 117.791 66.9155 117.665 64.1621C117.574 62.052 117.665 60.2139 117.341 56.9647C117.186 55.3207 116.998 53.955 116.856 53.0424C118.868 52.5375 121.76 51.8903 125.169 50.9C129.898 49.5537 133.443 48.5505 137.725 46.6476C142.461 44.5505 142.001 44.0586 146.581 42.0716C148.858 41.0878 150.663 40.4664 158.019 38.3111C165.574 36.091 169.365 34.9907 170.575 34.7124C176.527 33.433 182.549 32.508 188.611 31.9422C191.341 31.625 193.618 31.4179 195.216 31.2949V38.2981C186.819 37.5256 178.357 38.6492 170.452 41.5861L161.751 45.1719C159.727 46.8259 157.838 48.6397 156.104 50.5958C155.218 51.5926 154.409 52.5764 153.691 53.5343C153.633 54.7899 153.581 56.0391 153.529 57.2948C154.441 58.8223 155.347 60.3498 156.265 61.8708L159.5 63.01C169.741 62.2915 174.618 61.955 175.174 61.9355C175.731 61.9161 176.015 61.8708 176.087 61.8708C176.3 61.8708 176.649 62.1427 177.212 63.5083C182.025 62.4873 186.951 62.1022 191.865 62.3627L194.912 62.3433Z" fill="#16193A"/>
<path d="M172.323 107.065C172.375 104.808 171.815 102.578 170.7 100.603C169.87 99.0758 168.766 97.7081 167.441 96.566C165.716 94.971 163.59 93.8539 161.282 93.3287C160.33 93.1304 155.813 92.1771 151.707 95.1137C149.141 97.0307 147.452 99.8666 147.008 103.002C146.459 105.125 146.459 107.348 147.008 109.47C147.82 112.502 149.723 115.143 152.366 116.905C154.49 118.288 156.986 119.019 159.535 119.003C162.788 118.908 165.894 117.65 168.269 115.465C170.664 113.276 172.116 110.271 172.329 107.065H172.323ZM179.459 102.861C179.922 105.715 180.509 109.688 178.808 114.339C177.871 116.936 176.377 119.305 174.428 121.287C169.598 126.066 163.524 126.591 161.288 126.783C158.883 126.988 154.256 127.32 149.446 124.678C146.401 122.932 143.882 120.424 142.146 117.41C140.947 115.529 137.03 109.381 138.574 101.895C139.154 99.2832 140.263 96.8118 141.833 94.6275C143.282 92.5935 145.1 90.839 147.197 89.4516C150.577 87.2861 154.515 86.1099 158.551 86.0608C161.613 86.0751 164.642 86.6794 167.467 87.8394C170.433 88.9142 172.792 89.7587 174.93 91.8764C178.234 95.1265 178.886 99.2211 179.492 102.861" fill="#16193A"/>
<path d="M158.411 102.03C159.078 101.741 159.814 101.644 160.534 101.75C161.255 101.857 161.93 102.163 162.484 102.633C163.993 104.068 163.381 106.479 162.787 107.655C162.684 107.86 161.448 110.229 158.865 110.398C157.868 110.435 156.884 110.166 156.047 109.626C155.209 109.087 154.559 108.304 154.186 107.383C153.712 106.094 153.767 104.672 154.337 103.422L158.411 102.054" fill="#16193A"/>
<path d="M108.609 20.4316H109.848L110.8 18.1628H115.416L116.355 20.4316H117.633L113.708 11.1997H112.678L108.609 20.4316ZM114.999 17.1457H111.23L113.147 12.6079H113.173L114.999 17.1457ZM118.677 20.4316H119.694V17.4586C119.694 16.0634 120.268 15.1115 121.585 15.1115C122.42 15.1115 122.759 15.6331 122.759 16.9762V20.4316H123.776V16.911C123.776 15.8157 124.493 15.1115 125.354 15.1115C126.54 15.1115 126.84 15.933 126.84 16.7806V20.4316H127.857V16.7284C127.857 15.1506 127.283 14.1727 125.536 14.1727C124.61 14.1727 124.05 14.616 123.606 15.3332C123.411 14.9159 122.993 14.1727 121.676 14.1727C120.672 14.1727 119.916 14.7334 119.642 15.3332H119.616C119.616 14.9942 119.59 14.6551 119.59 14.3291H118.625C118.625 14.7334 118.677 15.2158 118.677 15.7765V20.4316ZM129.103 19.4537C129.703 20.3143 130.446 20.5881 131.476 20.5881C132.689 20.5881 133.915 20.0535 133.915 18.6713C133.915 17.4456 133.002 17.0544 131.92 16.8458C131.111 16.6893 130.381 16.4676 130.381 15.9591C130.381 15.3853 131.02 15.1115 131.581 15.1115C132.181 15.1115 132.611 15.4114 132.872 15.8417L133.719 15.281C133.302 14.4987 132.507 14.1727 131.646 14.1727C130.511 14.1727 129.364 14.7855 129.364 15.9721C129.364 17.237 130.355 17.4847 131.516 17.7455C132.168 17.8889 132.819 18.0584 132.819 18.7104C132.819 19.3754 132.115 19.6493 131.476 19.6493C130.759 19.6493 130.316 19.3233 129.912 18.8278L129.103 19.4537ZM138.671 14.3291H136.872V12.5949H135.855V14.3291H134.525V15.1898H135.855V18.5409C135.855 19.8057 136.09 20.5881 137.537 20.5881C137.915 20.5881 138.371 20.5229 138.724 20.3664L138.684 19.4406C138.411 19.5841 138.085 19.6493 137.785 19.6493C136.885 19.6493 136.872 19.0234 136.872 18.241V15.1898H138.671V14.3291ZM144.599 18.7235C144.116 19.3363 143.529 19.6493 142.656 19.6493C141.547 19.6493 140.739 18.7495 140.661 17.6933H145.59V17.3674C145.59 15.3462 144.416 14.1727 142.695 14.1727C140.895 14.1727 139.565 15.4897 139.565 17.3804C139.565 19.1538 140.739 20.5881 142.656 20.5881C143.79 20.5881 144.651 20.2491 145.368 19.3233L144.599 18.7235ZM140.661 16.8327C140.791 15.8026 141.534 15.1115 142.656 15.1115C143.777 15.1115 144.455 15.8026 144.494 16.8327H140.661ZM147.163 20.4316H148.18V17.4586C148.18 16.0634 148.728 15.1898 149.967 15.1898C150.149 15.1898 150.345 15.2158 150.514 15.268L150.579 14.2379C150.436 14.1857 150.293 14.1727 150.162 14.1727C149.158 14.1727 148.402 14.7334 148.128 15.3332H148.102C148.102 14.9942 148.076 14.6551 148.076 14.3291H147.111C147.111 14.7334 147.163 15.2158 147.163 15.7765V20.4316ZM156.82 20.4316H157.837V10.5738H156.82V15.2158H156.794C156.233 14.5639 155.49 14.1727 154.603 14.1727C152.686 14.1727 151.395 15.5288 151.395 17.3804C151.395 19.2059 152.738 20.5881 154.446 20.5881C155.542 20.5881 156.415 20.0405 156.794 19.3494H156.82V20.4316ZM156.82 17.3804C156.82 18.6583 155.972 19.6493 154.655 19.6493C153.338 19.6493 152.491 18.6583 152.491 17.3804C152.491 16.1025 153.338 15.1115 154.655 15.1115C155.972 15.1115 156.82 16.1025 156.82 17.3804ZM160.279 15.7765C160.762 15.3332 161.44 15.1115 162.092 15.1115C163.044 15.1115 163.604 15.5679 163.604 16.4546V16.6371H163.213C161.714 16.6371 159.367 16.7545 159.367 18.7756C159.367 19.9622 160.397 20.5881 161.635 20.5881C162.561 20.5881 163.239 20.1448 163.644 19.5189H163.67C163.67 19.7797 163.67 20.1578 163.735 20.4316H164.713C164.661 20.1187 164.622 19.7275 164.622 19.3754V16.7545C164.622 15.0333 163.865 14.1727 162.066 14.1727C161.179 14.1727 160.266 14.4726 159.64 15.1115L160.279 15.7765ZM163.604 17.4977V17.8889C163.578 18.8799 162.979 19.7275 161.805 19.7275C161.036 19.7275 160.462 19.4406 160.462 18.6713C160.462 17.8498 161.296 17.4977 162.587 17.4977H163.604ZM166.48 20.4316H167.497V17.4586C167.497 16.0634 168.071 15.1115 169.388 15.1115C170.223 15.1115 170.562 15.6331 170.562 16.9762V20.4316H171.579V16.911C171.579 15.8157 172.296 15.1115 173.157 15.1115C174.343 15.1115 174.643 15.933 174.643 16.7806V20.4316H175.66V16.7284C175.66 15.1506 175.086 14.1727 173.339 14.1727C172.413 14.1727 171.853 14.616 171.409 15.3332C171.214 14.9159 170.796 14.1727 169.479 14.1727C168.475 14.1727 167.719 14.7334 167.445 15.3332H167.419C167.419 14.9942 167.393 14.6551 167.393 14.3291H166.428C166.428 14.7334 166.48 15.2158 166.48 15.7765V20.4316ZM109.679 33.4316H110.774V25.6862H110.8L114.112 33.4316H114.777L118.089 25.6862H118.115V33.4316H119.211V24.1997H117.62L114.464 31.4366H114.438L111.309 24.1997H109.679V33.4316ZM121.417 33.4316H122.434V27.3291H121.417V33.4316ZM121.183 24.9429C121.183 25.3732 121.495 25.6862 121.926 25.6862C122.356 25.6862 122.669 25.3732 122.669 24.9429C122.669 24.5387 122.343 24.1997 121.926 24.1997C121.509 24.1997 121.183 24.5387 121.183 24.9429ZM124.55 33.4316H125.567V23.5738H124.55V33.4316ZM128.152 28.7765C128.634 28.3332 129.312 28.1115 129.964 28.1115C130.916 28.1115 131.477 28.5679 131.477 29.4546V29.6371H131.086C129.586 29.6371 127.239 29.7545 127.239 31.7756C127.239 32.9622 128.269 33.5881 129.508 33.5881C130.434 33.5881 131.112 33.1448 131.516 32.5189H131.542C131.542 32.7797 131.542 33.1578 131.607 33.4316H132.585C132.533 33.1187 132.494 32.7275 132.494 32.3754V29.7545C132.494 28.0333 131.738 27.1727 129.938 27.1727C129.051 27.1727 128.139 27.4726 127.513 28.1115L128.152 28.7765ZM131.477 30.4977V30.8889C131.451 31.8799 130.851 32.7275 129.677 32.7275C128.908 32.7275 128.334 32.4406 128.334 31.6713C128.334 30.8498 129.169 30.4977 130.46 30.4977H131.477ZM134.353 33.4316H135.37V30.4586C135.37 29.0634 135.944 28.1115 137.261 28.1115C138.212 28.1115 138.656 28.7505 138.656 29.7675V33.4316H139.673V29.6632C139.673 28.1898 138.956 27.1727 137.352 27.1727C136.348 27.1727 135.592 27.7334 135.318 28.3332H135.292C135.292 27.9942 135.266 27.6551 135.266 27.3291H134.301C134.301 27.7334 134.353 28.2158 134.353 28.7765V33.4316ZM141.246 30.3804C141.246 32.2842 142.628 33.5881 144.506 33.5881C146.384 33.5881 147.766 32.2842 147.766 30.3804C147.766 28.4766 146.384 27.1727 144.506 27.1727C142.628 27.1727 141.246 28.4766 141.246 30.3804ZM142.342 30.3804C142.342 29.1025 143.189 28.1115 144.506 28.1115C145.823 28.1115 146.671 29.1025 146.671 30.3804C146.671 31.6583 145.823 32.6493 144.506 32.6493C143.189 32.6493 142.342 31.6583 142.342 30.3804Z" fill="#16193A"/>
<path d="M77.4912 11.311L86.2047 19.8901L94.6739 11.3626L99.0566 15.5785L90.5429 24.4008L99.4045 32.8767L94.8738 37.4389L86.2047 28.8083L77.4912 37.4905L73.1085 33.2747L81.674 24.4008L72.916 15.9691L77.4912 11.311Z" fill="#16193A"/>
<path d="M58.9015 5.21582L47.8115 14.6204L51.8907 19.3448L58.709 13.3158V39.3553H65.6235V5.21582H58.9015Z" fill="#16193A"/>
</g>
<defs>
<clipPath id="clip0_412_594">
<rect width="197.331" height="127.787" fill="white"/>
</clipPath>
</defs>
</svg>
