<svg width="107" height="118" viewBox="0 0 107 118" fill="none" xmlns="http://www.w3.org/2000/svg">
<g clip-path="url(#clip0_411_573)">
<path d="M84.2224 6.17017L92.2579 14.0906L100.061 6.21103L104.093 10.1065L96.2484 18.2585L104.413 26.0972L100.239 30.3128L92.2579 22.3379L84.2224 30.3536L80.191 26.4581L88.0833 18.2585L80.0068 10.4675L84.2224 6.17017Z" fill="#16193A"/>
<path d="M51.8419 32.0763H73.6701V26.199H59.7956L69.3045 17.9585C69.8781 17.4495 70.4246 16.9107 70.9416 16.3445C71.4443 15.7779 71.8813 15.1565 72.2445 14.492C72.6291 13.7881 72.9203 13.0372 73.1108 12.2583C73.3233 11.366 73.4263 10.4512 73.4177 9.53412C73.4491 8.11563 73.1867 6.70597 72.6469 5.39344C72.1641 4.25655 71.4294 3.24369 70.4982 2.43095C69.5571 1.60983 68.4597 0.986737 67.2718 0.59897C65.9838 0.190909 64.6393 -0.0113556 63.2881 -0.000339089C61.845 -0.013872 60.408 0.188132 59.0248 0.59897C57.7795 0.969409 56.6203 1.58283 55.6141 2.40371C54.6152 3.23518 53.8098 4.27403 53.254 5.44793C52.628 6.78304 52.2799 8.23107 52.2308 9.70438L58.8679 10.1947C58.9127 9.1282 59.3219 8.10914 60.0275 7.30715C60.3962 6.90882 60.8485 6.59669 61.352 6.39303C61.8555 6.18936 62.3978 6.0992 62.9402 6.12896C63.9289 6.10365 64.8949 6.42674 65.6687 7.04154C66.0464 7.34095 66.3477 7.72534 66.5481 8.1633C66.7485 8.60125 66.8422 9.08033 66.8215 9.56137C66.8306 10.478 66.5002 11.3657 65.8938 12.0539C65.3112 12.7277 64.6894 13.3667 64.0316 13.9676L51.8419 24.9936V32.0763ZM33.0356 18.7553H34.584C35.3207 18.7553 36.0643 18.7553 36.801 18.8234C37.4811 18.8567 38.1513 18.9992 38.786 19.2457C39.3662 19.4668 39.8721 19.8468 40.2457 20.3421C40.6426 20.9473 40.8361 21.6629 40.7982 22.3852C40.8399 23.4536 40.4687 24.4972 39.7614 25.3C39.3387 25.7062 38.8341 26.0178 38.2813 26.2139C37.7284 26.41 37.1401 26.4862 36.5554 26.4374C35.4013 26.5237 34.2569 26.1737 33.3494 25.4567C32.5914 24.7469 32.0861 23.8096 31.9101 22.787L24.8978 24.4624C25.5481 27.2818 26.8828 29.3454 28.9019 30.653C31.0729 32.0049 33.5953 32.6871 36.1529 32.6143C37.6201 32.613 39.0801 32.409 40.4913 32.0082C41.7883 31.6578 43.0047 31.0587 44.0725 30.2443C45.0965 29.4517 45.9288 28.4392 46.5077 27.2818C47.1315 25.9967 47.4424 24.5826 47.4149 23.1548C47.4182 22.263 47.2824 21.3761 47.0125 20.526C46.764 19.7224 46.3761 18.9687 45.8665 18.299C45.3614 17.6418 44.7394 17.0831 44.0316 16.6509C43.2695 16.1889 42.4147 15.9006 41.5281 15.8064V15.6634C43.1156 15.4016 44.5417 14.5409 45.5118 13.2594C46.4423 11.9457 46.921 10.3661 46.876 8.75775C46.9123 7.39993 46.6174 6.05367 46.0165 4.835C45.4552 3.76455 44.6603 2.83361 43.6905 2.11086C42.6673 1.36182 41.5094 0.816166 40.2798 0.503625C38.9838 0.165344 37.6494 -0.00405123 36.3098 -0.000339089C35.0381 -0.00515458 33.77 0.136529 32.5308 0.421901C31.3842 0.687773 30.2863 1.13128 29.2771 1.7363C28.2922 2.34763 27.4371 3.14589 26.76 4.08586C26.0096 5.13813 25.4678 6.32402 25.1638 7.57956L32.4626 9.09826C32.6649 8.22848 33.1645 7.45625 33.8753 6.91434C34.5861 6.37244 35.4639 6.09473 36.3576 6.12896C37.3606 6.10009 38.3407 6.43111 39.1202 7.06197C39.4801 7.34493 39.7691 7.70759 39.9645 8.12128C40.1598 8.53497 40.2561 8.98835 40.2457 9.44559C40.2749 10.0764 40.1234 10.7024 39.8092 11.2503C39.5193 11.7038 39.1145 12.0726 38.6359 12.3195C38.1285 12.5767 37.5824 12.7492 37.0192 12.8303C36.4187 12.9209 35.8122 12.9665 35.2048 12.9665H33.0356V18.7553ZM10.041 32.0763H16.4121V0.537677H10.232L0 9.22085L3.75854 13.6203L10.041 8.05628V32.0763Z" fill="#16193A"/>
<path d="M37.926 73.211C44.4403 73.892 46.1116 72.3188 52.3121 72.7683C53.0625 72.8228 55.1362 72.9522 57.9124 72.993C58.5946 72.993 59.2767 72.993 60.143 72.993C61.6778 72.9522 63.3558 72.993 65.1498 73.102C66.5141 73.1973 67.8102 73.3404 69.0107 73.5174C71.7392 73.2995 73.9425 73.2791 75.4841 73.3063C77.2304 73.3063 78.2126 73.4289 80.4978 73.4085C83.2263 73.4085 85.2727 73.245 85.9548 73.2042C90.2768 72.9911 94.6087 73.0958 98.9153 73.5174H101.112C101.495 74.2376 101.775 75.0079 101.944 75.8057C102.269 77.3941 102.161 79.0407 101.63 80.5729C101.73 83.8373 101.835 87.0972 101.944 90.3526C102.046 94.18 102.06 98.1708 101.944 102.318C101.876 104.763 101.773 107.16 101.63 109.49L100.484 111.574L98.1377 112.37H95.4092C93.0967 112.221 89.461 112.023 84.9726 111.955C82.244 111.914 80.3614 111.955 78.9221 111.955C76.33 112.043 75.8252 112.098 74.2017 112.146C66.746 112.364 64.0653 111.165 59.1948 111.819C58.7242 111.88 57.66 112.037 56.1662 112.132C54.6028 112.21 53.0365 112.21 51.4731 112.132C51.4731 112.132 48.1034 112.016 44.4744 111.921C41.6777 111.846 39.7405 111.826 39.2561 111.819C37.4894 111.819 35.7295 111.778 33.4103 111.819C31.9096 111.819 30.6818 111.887 29.7609 111.921L27.8782 109.633C27.6667 107.794 27.4621 105.955 27.2506 104.123C27.0392 102.291 26.8345 100.377 26.6231 98.5045C26.8004 96.7338 26.9755 94.9654 27.1483 93.1993C27.046 91.4286 26.9369 89.6579 26.8345 87.894C27.0255 86.1233 27.1961 84.3186 27.3598 82.4458C27.5735 79.9668 27.7463 77.5401 27.8782 75.1655C28.321 74.6002 28.8505 74.1084 29.4471 73.7081C31.9437 72.0532 34.6449 72.7751 37.9192 73.1156L37.926 73.211ZM69.0516 37.2047C67.9159 37.1332 66.7767 37.1332 65.641 37.2047C64.0186 37.2272 62.4089 37.4935 60.8661 37.9947C59.5721 38.4868 58.3671 39.186 57.2985 40.0651L55.1839 43.1025C54.9656 43.981 54.7405 44.8596 54.5018 45.7381L50.1293 45.6291L48.1443 46.3102L46.9574 47.7608L33.3148 47.8902C31.4594 47.9378 15.0269 47.9787 13.1715 48.0195C11.8544 47.9225 10.5341 48.1566 9.33107 48.7006C8.85358 48.9185 6.07049 50.2397 5.36107 52.923C5.02 54.2306 5.44975 54.7754 5.6271 57.2748C5.74257 58.8644 5.69686 60.4616 5.49067 62.042C5.10544 64.7943 4.92986 67.5718 4.96543 70.3506C4.96543 72.5367 5.13597 68.3075 5.49067 73.2927C5.87267 78.5366 6.06366 73.2927 5.89313 75.615C5.63392 78.9589 5.10186 80.1234 5.36107 83.263C5.44292 84.2573 5.63392 85.381 6.0432 87.6148C6.60255 90.8565 6.85494 91.4422 7.23693 91.9666C7.61892 92.491 8.60119 93.5534 11.2069 94.214C13.5508 94.7452 15.9674 94.8787 18.3557 94.609L22.8577 94.8678C23.1315 96.8348 23.2206 98.8229 23.1238 100.806C22.9805 103.531 22.5644 104.777 22.5917 107.406C22.6053 109.009 22.7835 110.606 23.1238 112.173C23.6543 113.838 24.7844 115.248 26.2957 116.13C27.5778 116.705 29.0016 116.89 30.3884 116.661C33.6941 116.411 37.0155 116.454 40.3135 116.79L44.1539 117.056H55.2521L69.8156 116.92L84.5087 117.315L96.0299 116.79L100.662 117.471C102.341 117.185 103.877 116.349 105.027 115.094C105.982 113.978 106.473 112.616 106.753 109.026C106.994 105.864 106.948 102.687 106.617 99.5329C106.439 97.1969 106.269 94.8678 106.091 92.5387C106.269 89.8145 106.444 87.0904 106.617 84.3663V76.5957C106.893 74.9254 106.615 73.2107 105.825 71.7127C105.25 70.6575 104.432 69.7541 103.438 69.0771H93.4037L77.3804 68.9409L57.9193 69.0771L46.9369 68.3961L44.0242 69.0771L39.9315 68.9409H30.2588C29.5862 68.6484 28.869 68.4712 28.1374 68.4165C27.2355 68.2853 26.3148 68.4227 25.4908 68.8115C24.5287 69.3584 23.817 70.257 23.5058 71.3177C23.1988 72.9862 22.885 74.6548 22.5781 76.3301C22.7963 78.0872 23.0237 79.8442 23.2602 81.6013L22.7077 89.8963C20.1686 90.2814 17.5933 90.3705 15.0337 90.1619C13.9559 90.0733 12.9327 89.9303 11.9846 89.7601L10.9136 86.8793C10.7772 82.4889 10.6885 78.0054 10.6476 73.4289C10.6067 67.7014 10.6476 73.8716 10.784 68.4301V57.7447C10.9136 56.6006 11.0432 55.4564 11.1796 54.3395L14.2219 52.8889H35.7022L47.2166 52.6301L48.9424 54.3395L54.8974 54.8707C56.9859 58.4648 60.1932 61.2795 64.0312 62.8865L70.2522 63.2815L73.4309 62.3621L73.963 58.8003C76.3914 58.8729 78.8607 58.9161 81.3709 58.9297C82.4419 58.9297 83.4992 58.9297 84.5496 58.9297C85.2762 58.4887 85.7985 57.7787 86.0026 56.9547C86.1637 56.2422 86.0721 55.496 85.7434 54.8435L83.4923 53.9173H73.6697V46.4259H82.8034L85.0544 46.1603L86.1117 44.4441C85.8048 43.7018 85.4978 42.9527 85.184 42.2035L83.4651 41.5225L73.2331 41.6587C73.2808 40.6916 73.3218 39.7246 73.3695 38.7575C71.9098 38.274 70.4568 37.7836 68.9971 37.3069" fill="#16193A"/>
<path d="M68.3353 102.836C68.4444 102.311 68.5399 101.862 68.6081 101.508C68.7036 100.786 68.8059 100.05 68.9151 99.3013C69.1129 97.9393 69.338 96.6657 69.5972 95.4058C68.2856 95.7158 66.994 96.1047 65.7295 96.5704C62.81 97.6464 61.0092 98.8859 59.679 99.492C56.655 100.871 53.4988 101.942 50.2588 102.686C51.4593 101.596 53.3693 99.9074 55.8045 97.9188C60.2588 94.2889 62.0528 93.2674 64.795 90.6794C66.9554 88.6325 68.9068 86.3763 70.6204 83.944L70.9274 85.5308L76.5481 79.8919L78.6559 78.7341C78.0965 80.8453 77.5327 82.9565 76.9642 85.0677C76.1729 87.9962 75.3771 90.9246 74.5768 93.8531L77.1688 93.0154L79.1334 92.382C81.0246 90.9389 83.0865 89.7335 85.2726 88.793C87.5441 87.8191 89.2221 87.4309 92.4281 85.9667C93.7924 85.3265 94.8701 84.7408 95.5796 84.3458L93.1853 87.4854C91.4018 89.4484 89.4899 91.2912 87.4622 93.0018C84.3312 95.651 82.1007 96.9858 77.012 100.336C74.795 101.808 71.5549 103.994 67.5372 106.759C67.8782 105.22 68.1374 104.035 68.2807 103.353L68.3898 102.815" fill="#16193A"/>
<path d="M37.1213 76.7046C39.5292 76.8204 39.7884 76.7046 41.1459 76.9225C41.954 77.0678 42.7482 77.282 43.5197 77.5627C43.7468 79.6911 43.8516 81.8308 43.8335 83.9712C43.8335 85.6738 43.7311 85.953 43.5197 90.3729C43.3696 93.4852 43.3014 95.038 43.315 96.2502C43.315 98.9744 43.3628 100.336 43.5197 101.91C43.7311 104.041 43.9972 105.24 43.315 106.5C42.9049 107.224 42.2969 107.817 41.562 108.209C37.667 108.155 34.8566 108.134 33.7106 108.209C33.3535 108.251 32.9923 108.177 32.6806 107.998C32.4137 107.794 32.1926 107.537 32.0317 107.242C31.8707 106.948 31.7734 106.623 31.7461 106.289C32.1998 102.924 32.3868 99.5286 32.3054 96.1345C32.2168 92.6067 31.8757 90.9109 31.8484 87.1721C31.8314 84.3148 32.0046 81.4595 32.3668 78.6251C32.5204 77.9656 32.893 77.3775 33.4241 76.9566C34.1063 76.4322 34.7406 76.6229 37.1417 76.7386" fill="#16193A"/>
</g>
<defs>
<clipPath id="clip0_411_573">
<rect width="106.924" height="117.356" fill="white"/>
</clipPath>
</defs>
</svg>
