<svg width="107" height="143" viewBox="0 0 107 143" fill="none" xmlns="http://www.w3.org/2000/svg">
<g clip-path="url(#clip0_412_575)">
<path d="M17.7052 124.117C17.7297 123.43 17.6126 122.745 17.3612 122.104C17.1098 121.464 16.7293 120.881 16.2433 120.393C15.7348 119.897 15.1297 119.509 14.4653 119.255C13.8009 119.001 13.0913 118.885 12.3803 118.914C11.6621 118.878 10.9443 118.991 10.272 119.245C9.5998 119.5 8.98785 119.891 8.47487 120.393C7.5269 121.397 6.99906 122.724 6.99906 124.103C6.99906 125.482 7.5269 126.809 8.47487 127.814C8.98425 128.308 9.58966 128.694 10.254 128.947C10.9183 129.2 11.6274 129.315 12.3379 129.285C13.0543 129.322 13.7707 129.212 14.4425 128.961C15.1144 128.71 15.7273 128.325 16.2433 127.828C16.7301 127.342 17.1122 126.763 17.366 126.125C17.6198 125.487 17.7401 124.803 17.7193 124.117H17.7052ZM12.0696 113.937C12.4438 113.845 12.8252 113.768 13.1995 113.704C13.5845 113.639 13.9743 113.606 14.3648 113.606C15.8208 113.59 17.2641 113.878 18.6021 114.451C19.8457 114.979 20.9662 115.758 21.8931 116.739C22.8201 117.731 23.5403 118.896 24.0118 120.168C24.5167 121.519 24.7704 122.95 24.7604 124.392C24.7894 125.938 24.4854 127.472 23.869 128.89C23.2525 130.309 22.3379 131.579 21.1869 132.615C20.0391 133.637 18.6998 134.422 17.2462 134.925C15.6919 135.478 14.052 135.755 12.4015 135.741C10.7414 135.759 9.09145 135.483 7.52853 134.925C6.08577 134.417 4.75665 133.632 3.61605 132.615C2.45826 131.584 1.53625 130.316 0.912419 128.899C0.288586 127.481 -0.0225117 125.947 0.000181376 124.399C-0.0105648 123.309 0.0983707 122.22 0.325044 121.153C0.531792 120.191 0.822448 119.249 1.1937 118.337C1.54813 117.472 1.97083 116.636 2.45784 115.838C2.92866 115.04 3.43714 114.223 3.98328 113.388L11.2433 102.123H19.8168L12.0696 113.937Z" fill="#16193A"/>
<path d="M44.9159 108.565H28.5244V102.123H52.7903V108.29L39.5344 135.185H31.3352L44.9159 108.565Z" fill="#16193A"/>
<path d="M59.9939 108.565L68.292 116.739L76.343 108.614L80.5168 112.627L72.4093 121.034L80.8416 129.109L76.5337 133.453L68.292 125.237L59.9939 133.502L55.8272 129.482L63.977 121.034L55.6436 113L59.9939 108.565Z" fill="#16193A"/>
<path d="M54.8877 54.2751C55.1839 53.3898 55.5257 52.5204 55.9117 51.6701C56.2083 51.0295 56.4767 50.5014 56.6815 50.1283L57.5572 48.0161L59.0685 49.8889C59.065 49.9546 59.065 50.0204 59.0685 50.086C59.1109 50.1916 59.1744 50.3536 59.2662 50.5437C59.4887 51.0522 59.7434 51.546 60.029 52.0222C60.4065 52.637 60.7507 53.2716 61.0601 53.9231C61.2911 54.4302 61.4801 54.9553 61.625 55.4931C61.8335 56.06 61.9108 56.6665 61.851 57.2674C61.7197 57.9037 61.4056 58.4884 60.9471 58.95C60.5131 59.4393 59.9684 59.8182 59.3581 60.0554C59.0294 60.1792 58.6845 60.2551 58.334 60.2807C57.4172 60.3187 56.5166 60.0318 55.7916 59.471C55.3462 59.1452 54.9794 58.7243 54.7182 58.239C54.7182 58.239 54.4286 57.8658 54.5204 57.7813C54.529 57.7613 54.5334 57.7397 54.5334 57.718C54.5334 57.6962 54.529 57.6746 54.5204 57.6546L54.4215 57.5279C54.3729 57.3218 54.3398 57.1123 54.3227 56.9013C54.2975 56.0077 54.4737 55.12 54.8382 54.3033" fill="#16193A"/>
<path d="M48.8284 40.4406C49.4852 40.166 50.2974 39.8281 51.505 39.4409C52.2112 39.2297 52.7691 39.0748 53.1929 38.9621L55.3963 38.1736C55.2621 38.9551 55.1209 39.7366 54.9867 40.5251L54.8313 40.6518C54.7748 40.7575 54.6971 40.9123 54.6124 41.1024C54.3807 41.6189 54.178 42.1477 54.005 42.6866C53.7924 43.3741 53.5401 44.0487 53.2494 44.7072C53.0194 45.2145 52.7477 45.7019 52.4372 46.1646C52.1413 46.6975 51.7314 47.159 51.2366 47.5164C50.6664 47.8504 50.0119 48.0141 49.351 47.9881C48.6916 47.9994 48.0387 47.8572 47.4442 47.5727C46.8786 47.3004 46.3985 46.8789 46.0561 46.3539C45.7138 45.8289 45.5222 45.2204 45.5021 44.5945C45.4547 44.0522 45.5295 43.5062 45.721 42.9963C45.721 42.9963 45.8128 42.5317 45.94 42.5457C45.9628 42.5399 45.9838 42.5285 46.0011 42.5125C46.0183 42.4965 46.0313 42.4765 46.0388 42.4542C46.0388 42.4049 46.0388 42.3486 46.0388 42.2993C46.1612 42.1238 46.2982 41.959 46.4484 41.8065C47.1147 41.1926 47.9043 40.7271 48.7648 40.4406" fill="#16193A"/>
<path d="M39.0678 38.5467C40.0112 38.5411 40.9542 38.5857 41.8927 38.6805C42.599 38.7579 43.1992 38.8424 43.6371 38.9128L45.9818 39.0606L44.6682 41.0461L44.4705 41.1024C44.3786 41.1728 44.2445 41.2855 44.0891 41.4263C43.6595 41.8045 43.2538 42.209 42.8744 42.6372C42.3944 43.1807 41.8852 43.6977 41.3489 44.1861C40.928 44.5604 40.4768 44.8995 40.0001 45.2C39.5103 45.5702 38.9469 45.8318 38.3475 45.9674C37.69 46.0433 37.0244 45.9336 36.4266 45.6506C35.8194 45.4049 35.2796 45.0188 34.8517 44.5241C34.631 44.2607 34.4502 43.9666 34.315 43.6511C33.9888 42.8108 33.9888 41.8794 34.315 41.039C34.4912 40.5105 34.7858 40.029 35.1765 39.6309C35.1765 39.6309 35.4449 39.2437 35.5579 39.3071C35.5809 39.3111 35.6046 39.3093 35.6268 39.3019C35.649 39.2946 35.669 39.2818 35.685 39.2648C35.685 39.2155 35.7486 39.1733 35.7768 39.1311C35.9639 39.0235 36.1573 38.9271 36.3559 38.8424C37.2155 38.5382 38.1315 38.4252 39.0396 38.5115" fill="#16193A"/>
<path d="M41.6038 64.3432C42.1397 63.571 42.7173 62.8283 43.334 62.1184C43.8001 61.5833 44.2097 61.1468 44.5134 60.8441L45.9259 59.0347L46.8722 61.2524C46.8722 61.3158 46.8369 61.3792 46.8157 61.4425C46.7945 61.5059 46.8157 61.7241 46.8722 61.9283C46.953 62.4882 47.0661 63.043 47.2112 63.5899C47.3969 64.2856 47.5454 64.9906 47.6561 65.702C47.736 66.2521 47.7691 66.808 47.755 67.3636C47.7896 67.9667 47.6908 68.57 47.4654 69.1308C47.1568 69.7058 46.6885 70.18 46.1165 70.4966C45.5608 70.8497 44.9292 71.0668 44.2733 71.1303C43.9237 71.1596 43.5716 71.1383 43.2281 71.0669C42.3373 70.8541 41.5513 70.3325 41.0105 69.5954C40.6694 69.1628 40.4282 68.6603 40.3043 68.124C40.3043 68.124 40.1348 67.6875 40.2478 67.6311C40.2831 67.6311 40.2831 67.5467 40.2831 67.5044L40.2549 67.3214C40.2651 67.1105 40.2934 66.9008 40.3396 66.6948C40.5696 65.8285 40.992 65.0248 41.5755 64.3432" fill="#16193A"/>
<path d="M35.0569 84.6621C35.5961 83.8926 36.1761 83.1523 36.7942 82.4443C37.2603 81.9093 37.6699 81.4728 37.9736 81.163C38.4538 80.5645 38.9341 79.959 39.3861 79.3606L40.2971 81.5643L40.2335 81.7544C40.2335 81.8741 40.2335 82.043 40.2971 82.2472C40.3751 82.8076 40.4883 83.3625 40.6361 83.9088C40.8225 84.6043 40.971 85.3094 41.081 86.0209C41.1603 86.571 41.191 87.127 41.1728 87.6825C41.2295 88.2683 41.1572 88.8594 40.9609 89.4145C40.6395 90.0123 40.1482 90.5021 39.5485 90.8226C38.9906 91.1712 38.3601 91.388 37.7052 91.4562C37.3556 91.4856 37.0035 91.4642 36.66 91.3928C35.7672 91.1805 34.9804 90.6559 34.4425 89.9143C34.1016 89.4841 33.8605 88.984 33.7363 88.4499C33.7363 88.4499 33.5668 88.0064 33.6798 87.95C33.6798 87.95 33.6798 87.8655 33.6798 87.8233L33.6162 87.6684C33.6273 87.4576 33.6556 87.248 33.701 87.0418C33.9337 86.178 34.3531 85.3754 34.9298 84.6903" fill="#16193A"/>
<path d="M60.3108 97.0676C60.3522 96.1244 60.4465 95.1841 60.5933 94.2514C60.7063 93.5474 60.8264 92.9841 60.9182 92.5617C61.01 91.8013 61.0947 91.0409 61.1865 90.2876L63.1498 91.6957C63.163 91.7599 63.1795 91.8233 63.1993 91.8858C63.2699 91.9773 63.3758 92.1181 63.51 92.2801C63.8797 92.7146 64.2735 93.1283 64.6894 93.5192C65.2206 94.0133 65.7229 94.5376 66.1937 95.0892C66.5561 95.5167 66.8821 95.9736 67.1682 96.4551C67.5243 96.9447 67.7657 97.5076 67.8745 98.1026C67.922 98.7557 67.7719 99.4081 67.4437 99.9753C67.1555 100.559 66.7318 101.066 66.2078 101.454C65.9256 101.655 65.6166 101.816 65.2897 101.933C64.4108 102.209 63.4617 102.165 62.6131 101.806C62.0955 101.606 61.6278 101.296 61.243 100.898C61.243 100.898 60.8617 100.609 60.9323 100.503C60.9363 100.48 60.9345 100.457 60.9271 100.435C60.9197 100.413 60.9069 100.393 60.8899 100.377L60.7557 100.278C60.6561 100.092 60.5688 99.8987 60.4944 99.7008C60.2289 98.8495 60.1589 97.9495 60.2896 97.0676" fill="#16193A"/>
<path d="M37.5643 51.8392C38.4986 51.6619 39.4415 51.5327 40.3892 51.4519C41.0954 51.3886 41.7098 51.3674 42.1406 51.3534L44.4923 51.0647C44.1745 51.7687 43.8638 52.5362 43.546 53.2684L43.3694 53.3599C43.2918 53.4444 43.1788 53.5782 43.0516 53.7471C42.7051 54.1965 42.3867 54.6668 42.0982 55.1552C41.7293 55.7761 41.3286 56.3777 40.8977 56.9576C40.557 57.4019 40.1789 57.8164 39.7677 58.1967C39.3606 58.6538 38.8563 59.0146 38.2917 59.2528C37.6595 59.4529 36.9829 59.4675 36.3425 59.2951C35.7075 59.1655 35.1122 58.8881 34.6052 58.4854C34.337 58.267 34.0995 58.0136 33.899 57.7321C33.4205 56.9661 33.242 56.0512 33.3976 55.1623C33.4727 54.6226 33.6708 54.1072 33.9767 53.6556C33.9767 53.6556 34.1673 53.2261 34.2874 53.2613C34.3114 53.2592 34.3346 53.2518 34.3554 53.2396C34.3762 53.2274 34.3939 53.2108 34.4075 53.1909L34.471 53.0431C34.6312 52.9023 34.8011 52.7729 34.9795 52.6559C35.7682 52.2029 36.6444 51.9221 37.5502 51.8321" fill="#16193A"/>
<path d="M12.4437 67.8142C13.1499 67.6945 14.0115 67.5537 15.2686 67.4551C15.9748 67.3988 16.5822 67.3847 17.02 67.3776L19.3576 67.1101L18.3901 69.2997L18.2135 69.3912C18.1359 69.4757 18.0229 69.6095 17.8957 69.7785C17.5436 70.2285 17.2182 70.6987 16.9211 71.1866C16.547 71.8029 16.1416 72.3998 15.7064 72.9749C15.3584 73.4173 14.9759 73.8316 14.5624 74.214C14.1485 74.6645 13.6396 75.018 13.0722 75.2489C12.438 75.433 11.7643 75.433 11.1301 75.2489C10.4846 75.1156 9.88117 74.8281 9.37161 74.4111C9.10262 74.1882 8.86506 73.9301 8.66539 73.6437C8.2996 73.0218 8.11626 72.31 8.13624 71.5893C8.15622 70.8687 8.3787 70.1681 8.77839 69.5672C8.77839 69.5672 8.97613 69.1378 9.10325 69.18C9.12699 69.1804 9.15044 69.1747 9.17142 69.1637C9.19241 69.1526 9.21025 69.1364 9.22331 69.1167L9.28687 68.9688C9.44976 68.8304 9.62201 68.7034 9.80241 68.5886C10.5957 68.1379 11.4775 67.8641 12.3872 67.786" fill="#16193A"/>
<path d="M11.0241 83.6201C11.7202 82.9803 12.4486 82.3764 13.2064 81.8107C13.7784 81.3882 14.2728 81.0503 14.6188 80.8109L16.4338 79.3535L16.8363 81.7051L16.7375 81.874C16.7375 81.9937 16.7022 82.1627 16.681 82.3669C16.648 82.932 16.648 83.4985 16.681 84.0636C16.7195 84.7672 16.7195 85.4723 16.681 86.1758C16.6371 86.7295 16.5449 87.2784 16.4055 87.8162C16.2995 88.4163 16.058 88.9844 15.6993 89.4778C15.2738 89.9766 14.7119 90.3411 14.0821 90.5268C13.4617 90.7542 12.7966 90.8338 12.14 90.7592C11.7913 90.715 11.4511 90.6201 11.1301 90.4775C10.3072 90.0854 9.65659 89.4068 9.30093 88.5696C9.06849 88.0766 8.95252 87.5371 8.96195 86.9925C8.96195 86.9925 8.89132 86.5278 9.01844 86.4996H9.05375C9.07228 86.4858 9.08713 86.4677 9.09698 86.4468C9.10683 86.426 9.11139 86.403 9.11025 86.38C9.11362 86.326 9.11362 86.2719 9.11025 86.218C9.17082 86.0156 9.24636 85.8179 9.33624 85.6266C9.75006 84.828 10.339 84.1325 11.0594 83.5919" fill="#16193A"/>
<path d="M27.9236 73.9253C28.7105 73.3799 29.5262 72.877 30.3671 72.4186C30.9886 72.0736 31.5253 71.8061 31.9208 71.616L33.8982 70.405L33.983 72.7847L33.8558 72.9396L33.7358 73.4254C33.613 73.9755 33.5257 74.5328 33.4745 75.094C33.4056 75.8035 33.2971 76.5087 33.1496 77.2062C33.0337 77.7527 32.8682 78.2876 32.6553 78.8044C32.4863 79.3871 32.1869 79.9239 31.7795 80.3744C31.292 80.8153 30.6856 81.1041 30.0352 81.2052C29.3923 81.3599 28.7218 81.3599 28.0789 81.2052C27.4702 81.0451 26.9155 80.7257 26.4722 80.2801C26.0289 79.8345 25.7132 79.2788 25.5577 78.6706C25.3966 78.1514 25.3555 77.6026 25.4377 77.0654C25.4377 77.0654 25.4377 76.5936 25.5577 76.5796H25.593C25.6145 76.5689 25.6329 76.553 25.6465 76.5333C25.6601 76.5136 25.6684 76.4907 25.6707 76.4669C25.6742 76.413 25.6742 76.3589 25.6707 76.305C25.7606 76.1114 25.862 75.9233 25.9744 75.7417C26.4842 75.0024 27.1493 74.3826 27.9236 73.9253Z" fill="#16193A"/>
<path d="M22.2603 54.916C23.1751 54.634 24.1039 54.399 25.0428 54.212C25.7491 54.0853 26.3494 54.0008 26.7802 53.9515L29.0683 53.4446C28.8353 54.205 28.5952 54.9583 28.3621 55.7187L28.1855 55.8313L27.9172 56.2467C27.6148 56.7253 27.3413 57.2213 27.098 57.7323C26.7944 58.3864 26.4549 59.0234 26.081 59.6402C25.787 60.1192 25.4514 60.5715 25.0782 60.992C24.7168 61.4816 24.2513 61.8855 23.7151 62.1748C23.1069 62.4304 22.439 62.5109 21.7872 62.4072C21.1305 62.3374 20.4993 62.1156 19.9439 61.7594C19.6572 61.5598 19.3983 61.323 19.1741 61.0554C18.747 60.482 18.4895 59.8009 18.4309 59.0891C18.3722 58.3773 18.5147 57.6634 18.8422 57.0282C18.8422 57.0282 18.9905 56.5847 19.1176 56.6128H19.1529C19.1757 56.6072 19.1969 56.5967 19.2152 56.5821C19.2335 56.5675 19.2484 56.5492 19.2589 56.5283C19.2795 56.4781 19.2961 56.4263 19.3083 56.3734C19.4575 56.2212 19.6155 56.0778 19.7815 55.944C20.5239 55.4273 21.3694 55.0767 22.2603 54.916Z" fill="#16193A"/>
<path d="M40.3046 25.7541C40.622 25.1738 41.0755 24.6786 41.6264 24.3108C42.1774 23.943 42.8094 23.7135 43.4685 23.642C46.2157 25.1416 49.2454 26.6483 52.5717 28.0845C54.754 29.028 56.8656 29.8587 58.9278 30.598L62.0987 28.2746L57.713 27.1059L51.5548 24.2052L46.2087 21.6988C46.703 20.9947 47.4304 19.9739 48.3768 18.8403C50.7355 16.0241 52.7059 13.4262 55.6297 12.2997C58.8655 11.0804 62.4364 11.0804 65.6722 12.2997C66.11 11.3844 70.6793 2.21063 81.3009 0.330809C82.6357 0.0914317 92.0073 -1.42228 99.1543 5.25917C103.526 9.32859 104.465 14.4823 105.298 18.8826C106.527 25.4091 104.592 25.3528 105.376 34.8716C105.941 42.06 107.198 44.2496 106.937 51.2901C106.824 54.3175 106.563 54.6977 106.167 59.0347C105.677 64.6224 105.531 70.2348 105.729 75.8404C105.948 86.2744 105.828 96.7155 105.856 107.15C105.856 116.021 105.913 134.185 105.913 143.056C105.821 143.056 105.708 142.901 105.616 142.894C102.297 142.817 98.9848 140.127 95.6655 140.078C95.6655 136.706 95.6302 126.363 95.4819 122.188V107.466C95.4042 102.404 95.0935 80.0717 95.0864 65.5471C95.0864 49.023 95.0864 47.0024 95.0864 47.0024C95.0864 42.8978 95.1359 41.7502 95.0864 39.2578C94.8816 29.9996 94.1471 30.1545 94.6909 26.5075C95.0864 23.8461 95.722 22.1001 95.0864 19.3613C94.7735 17.8152 94.0929 16.3666 93.1019 15.137C90.503 11.997 86.5058 11.6168 84.7967 11.4619C82.5227 11.2507 79.8037 10.9972 78.0664 12.6236C78.0664 12.6236 77.2966 13.3276 75.6935 18.615C75.6935 18.615 79.1611 21.9522 80.4393 25.9513C81.2382 28.6741 81.1691 31.5771 80.2416 34.2591C79.6802 35.9459 78.8137 37.516 77.6851 38.8917C79.8006 39.755 81.5486 41.3258 82.6286 43.3343L79.6625 46.4251L68.9914 39.4691L68.596 41.9825L58.8995 36.7655C55.2271 35.3574 51.4606 33.8108 47.5999 32.1258C45.114 31.0416 42.6822 29.955 40.3046 28.866C40.0858 28.38 39.9727 27.8534 39.9727 27.3206C39.9727 26.7879 40.0858 26.2612 40.3046 25.7752" fill="#16193A"/>
</g>
<defs>
<clipPath id="clip0_412_575">
<rect width="107" height="143" fill="white"/>
</clipPath>
</defs>
</svg>
